<mxfile host="app.diagrams.net" modified="2021-09-15T15:05:33.779Z" agent="5.0 (Windows NT 10.0; Win64; x64) AppleWebKit/537.36 (KHTML, like Gecko) Chrome/93.0.4577.63 Safari/537.36" etag="kB8StuLuIYENG597vLgb" version="15.2.7" type="github">
  <diagram id="nsvRWN1CX94Byt2fgFcj" name="Page-1">
    <mxGraphModel dx="868" dy="482" grid="1" gridSize="10" guides="1" tooltips="1" connect="1" arrows="1" fold="1" page="1" pageScale="1" pageWidth="850" pageHeight="1100" math="0" shadow="0">
      <root>
        <mxCell id="0" />
        <mxCell id="1" parent="0" />
        <mxCell id="gDBuxTI4QkFs4G11sH79-1" value="Studio IT CENTRE" style="shape=step;perimeter=stepPerimeter;whiteSpace=wrap;html=1;fixedSize=1;" vertex="1" parent="1">
          <mxGeometry x="350" y="280" width="175" height="90" as="geometry" />
        </mxCell>
        <mxCell id="gDBuxTI4QkFs4G11sH79-2" value="Data Staff&lt;br&gt;IT CENTRE" style="rounded=0;whiteSpace=wrap;html=1;" vertex="1" parent="1">
          <mxGeometry x="320" y="140" width="110" height="40" as="geometry" />
        </mxCell>
        <mxCell id="gDBuxTI4QkFs4G11sH79-3" value="Data Pemohonan Peminjaman Studio IT CENTRE" style="rounded=0;whiteSpace=wrap;html=1;" vertex="1" parent="1">
          <mxGeometry x="450" y="140" width="110" height="40" as="geometry" />
        </mxCell>
        <mxCell id="gDBuxTI4QkFs4G11sH79-4" value="INPUT" style="endArrow=open;endSize=12;dashed=1;html=1;exitX=0.5;exitY=1;exitDx=0;exitDy=0;entryX=0.343;entryY=-0.033;entryDx=0;entryDy=0;entryPerimeter=0;" edge="1" parent="1" source="gDBuxTI4QkFs4G11sH79-2" target="gDBuxTI4QkFs4G11sH79-1">
          <mxGeometry width="160" relative="1" as="geometry">
            <mxPoint x="340" y="280" as="sourcePoint" />
            <mxPoint x="500" y="280" as="targetPoint" />
            <Array as="points" />
          </mxGeometry>
        </mxCell>
        <mxCell id="gDBuxTI4QkFs4G11sH79-5" value="INPUT" style="endArrow=open;endSize=12;dashed=1;html=1;exitX=0.5;exitY=1;exitDx=0;exitDy=0;entryX=0.686;entryY=-0.011;entryDx=0;entryDy=0;entryPerimeter=0;" edge="1" parent="1" source="gDBuxTI4QkFs4G11sH79-3" target="gDBuxTI4QkFs4G11sH79-1">
          <mxGeometry width="160" relative="1" as="geometry">
            <mxPoint x="340" y="280" as="sourcePoint" />
            <mxPoint x="500" y="280" as="targetPoint" />
          </mxGeometry>
        </mxCell>
        <mxCell id="gDBuxTI4QkFs4G11sH79-6" value="Surat Perizinan Peminjaman Studio&lt;br&gt;IT CENTRE" style="rounded=0;whiteSpace=wrap;html=1;" vertex="1" parent="1">
          <mxGeometry x="377.5" y="460" width="120" height="60" as="geometry" />
        </mxCell>
        <mxCell id="gDBuxTI4QkFs4G11sH79-7" value="OUTPUT" style="endArrow=open;endSize=12;dashed=1;html=1;exitX=0.5;exitY=1;exitDx=0;exitDy=0;entryX=0.5;entryY=0;entryDx=0;entryDy=0;" edge="1" parent="1" source="gDBuxTI4QkFs4G11sH79-1" target="gDBuxTI4QkFs4G11sH79-6">
          <mxGeometry width="160" relative="1" as="geometry">
            <mxPoint x="340" y="270" as="sourcePoint" />
            <mxPoint x="500" y="270" as="targetPoint" />
          </mxGeometry>
        </mxCell>
        <mxCell id="gDBuxTI4QkFs4G11sH79-8" value="Mengelola Proses Pengajuan Peminjaman Studio IT CENTRE" style="rounded=0;whiteSpace=wrap;html=1;" vertex="1" parent="1">
          <mxGeometry x="670" y="300" width="120" height="60" as="geometry" />
        </mxCell>
        <mxCell id="gDBuxTI4QkFs4G11sH79-9" value="GOAL" style="endArrow=open;endSize=12;dashed=1;html=1;exitX=1;exitY=0.5;exitDx=0;exitDy=0;entryX=-0.025;entryY=0.383;entryDx=0;entryDy=0;entryPerimeter=0;" edge="1" parent="1" source="gDBuxTI4QkFs4G11sH79-1" target="gDBuxTI4QkFs4G11sH79-8">
          <mxGeometry width="160" relative="1" as="geometry">
            <mxPoint x="340" y="380" as="sourcePoint" />
            <mxPoint x="500" y="380" as="targetPoint" />
          </mxGeometry>
        </mxCell>
        <mxCell id="gDBuxTI4QkFs4G11sH79-10" value="Web Based" style="rounded=0;whiteSpace=wrap;html=1;" vertex="1" parent="1">
          <mxGeometry x="90" y="300" width="120" height="60" as="geometry" />
        </mxCell>
        <mxCell id="gDBuxTI4QkFs4G11sH79-11" value="USES" style="endArrow=open;endSize=12;dashed=1;html=1;exitX=1;exitY=0.5;exitDx=0;exitDy=0;entryX=0.097;entryY=0.578;entryDx=0;entryDy=0;entryPerimeter=0;" edge="1" parent="1" source="gDBuxTI4QkFs4G11sH79-10" target="gDBuxTI4QkFs4G11sH79-1">
          <mxGeometry width="160" relative="1" as="geometry">
            <mxPoint x="340" y="380" as="sourcePoint" />
            <mxPoint x="500" y="380" as="targetPoint" />
          </mxGeometry>
        </mxCell>
        <mxCell id="gDBuxTI4QkFs4G11sH79-12" value="&lt;font style=&quot;font-size: 18px&quot;&gt;BUSSINESS CASE STUDIO IT CENTRE&lt;/font&gt;" style="text;html=1;strokeColor=none;fillColor=none;align=center;verticalAlign=middle;whiteSpace=wrap;rounded=0;" vertex="1" parent="1">
          <mxGeometry x="50" y="90" width="250" height="20" as="geometry" />
        </mxCell>
      </root>
    </mxGraphModel>
  </diagram>
</mxfile>
